<svg height="512pt" viewBox="-48 0 512 512" width="512pt" xmlns="http://www.w3.org/2000/svg"><path d="m7.507812 402.894531v109.105469h400.390626v-109.105469c0-44.226562-35.851563-80.078125-80.078126-80.078125h-240.234374c-44.226563 0-80.078126 35.851563-80.078126 80.078125zm0 0" fill="#9ce3bf"/><path d="m157.652344 322.816406 50.050781 80.078125 50.046875-80.078125v-70.070312h-100.097656zm0 0" fill="#f7e0ba"/><path d="m157.652344 302.789062c15.417968 6.449219 32.324218 10.015626 50.050781 10.015626s34.632813-3.566407 50.046875-10.015626v-50.042968h-100.097656zm0 0" fill="#f5cc89"/><path d="m207.703125 282.777344c55.28125 0 100.097656-44.816406 100.097656-100.097656v-65.066407h-200.195312v65.066407c0 55.28125 44.8125 100.097656 100.097656 100.097656zm0 0" fill="#f7e0ba"/><path d="m305.796875 507.996094c-35.875 0-65.0625-29.1875-65.0625-65.0625 0-35.878906 29.1875-65.066406 65.0625-65.066406 35.878906 0 65.066406 29.1875 65.066406 65.066406 0 35.875-29.1875 65.0625-65.066406 65.0625zm0 0" fill="#7bdaa9"/><path d="m340.832031 442.933594c0 19.347656-15.683593 35.03125-35.035156 35.03125-19.347656 0-35.03125-15.683594-35.03125-35.03125 0-19.351563 15.683594-35.035156 35.03125-35.035156 19.351563 0 35.035156 15.683593 35.035156 35.035156zm0 0" fill="#e4edfb"/><path d="m267.761719 7.507812h-120.117188c-22.113281 0-40.039062 17.925782-40.039062 40.039063v70.066406h200.195312v-70.066406c0-22.113281-17.925781-40.039063-40.039062-40.039063zm0 0" fill="#9ce3bf"/><path d="m107.605469 117.613281h200.195312v30.03125h-200.195312zm0 0" fill="#f5cc89"/><path d="m305.796875 447.9375c-13.972656 0-26.035156-8.183594-31.65625-20.019531-2.160156 4.550781-3.375 9.640625-3.375 15.015625 0 19.347656 15.683594 35.03125 35.03125 35.03125 19.351563 0 35.035156-15.683594 35.035156-35.03125 0-5.375-1.210937-10.464844-3.375-15.015625-5.621093 11.835937-17.683593 20.019531-31.660156 20.019531zm0 0" fill="#d7e1f2"/><path d="m265.257812 315.308594v-41.75c30.0625-19.105469 50.050782-52.703125 50.050782-90.878906v-135.132813c0-26.21875-21.332032-47.546875-47.546875-47.546875h-17.164063v15.015625h17.164063c17.9375 0 32.53125 14.59375 32.53125 32.53125v62.5625h-122.621094v15.011719h122.621094v57.558594c0 51.054687-41.535157 92.589843-92.589844 92.589843-30.832031 0-59.546875-15.28125-76.816406-40.878906l-12.449219 8.394531c8.46875 12.554688 19.316406 22.960938 31.710938 30.8125v41.710938h-62.5625c-48.292969 0-87.585938 39.289062-87.585938 87.582031v39.785156l15.015625.003907v-39.789063c0-40.015625 32.554687-72.566406 72.570313-72.566406h15.515624v55.558593c-28.203124 3.691407-50.050781 27.859376-50.050781 57.050782v57.554687h33.535157v-15.015625h-18.519532v-42.539062c0-23.457032 19.082032-42.542969 42.542969-42.542969 23.457031 0 42.539063 19.085937 42.539063 42.542969v42.539062h-18.515626v15.015625h33.53125v-57.554687c0-29.191406-21.847656-53.359375-50.046874-57.050782v-55.558593h35.375l54.210937 86.734375 54.210937-86.734375h36.378907v70.742187c-19.890625 3.558594-35.035157 20.972656-35.035157 41.867188 0 23.457031 19.082032 42.539062 42.539063 42.539062 23.460937 0 42.542969-19.082031 42.542969-42.539062 0-20.894532-15.144532-38.308594-35.035156-41.867188v-70.742187h14.515624c12.03125 0 23.945313 3 34.453126 8.679687l7.140624-13.207031c-12.695312-6.863281-27.078124-10.488281-41.59375-10.488281zm-15.011718 5.351562-42.542969 68.070313-42.542969-68.070313v-39.140625c13.242188 5.699219 27.679688 8.765625 42.542969 8.765625 15.101563 0 29.484375-3.132812 42.542969-8.777344zm83.078125 122.273438c0 15.179687-12.347657 27.527344-27.527344 27.527344-15.175781 0-27.523437-12.347657-27.523437-27.527344 0-15.179688 12.347656-27.527344 27.523437-27.527344 15.179687 0 27.527344 12.347656 27.527344 27.527344zm0 0"/><path d="m415.40625 402.890625c0-26.484375-11.796875-51.261719-32.367188-67.988281l-9.472656 11.652344c17.046875 13.859374 26.824219 34.394531 26.824219 56.335937v109.109375h15.015625zm0 0"/><path d="m0 457.707031h15.015625v54.292969h-15.015625zm0 0"/><path d="m124.015625 222.347656c-5.90625-12.4375-8.902344-25.785156-8.902344-39.667968v-57.558594h47.546875v-15.011719h-47.546875v-62.5625c0-17.9375 14.59375-32.53125 32.53125-32.53125h87.9375v-15.015625h-87.9375c-26.21875 0-47.546875 21.328125-47.546875 47.546875v135.132813c0 16.128906 3.484375 31.644531 10.355469 46.109374zm0 0"/><g fill="#fff"><path d="m174.445312 252.757812c-9.515624-4.53125-17.890624-10.851562-24.894531-18.785156l11.253907-9.9375c5.65625 6.40625 12.417968 11.511719 20.097656 15.167969zm-34.488281-32.308593c-2.707031-4.839844-4.894531-9.976563-6.503906-15.273438l14.367187-4.359375c1.296876 4.261719 3.058594 8.402344 5.238282 12.300782zm0 0"/><path d="m298.292969 435.425781h15.011719v15.015625h-15.011719zm0 0"/><path d="m177.671875 55.054688h60.058594v15.015624h-60.058594zm0 0"/><path d="m200.195312 32.53125h15.015626v60.058594h-15.015626zm0 0"/></g></svg>