<svg id="Capa_1" enable-background="new 0 0 512 512" height="512" viewBox="0 0 512 512" width="512" xmlns="http://www.w3.org/2000/svg"><g><g><path d="m183.455 99.998h290.345v384.684h-290.345z" fill="#f5fcff"/><path d="m450.34 424.405h-1.684c-16.63 0-30.112-13.481-30.112-30.112v-49.082c0-16.63 13.481-30.112 30.112-30.112h1.684c16.63 0 30.112 13.481 30.112 30.112v49.082c0 16.631-13.482 30.112-30.112 30.112z" fill="#ddf4fe"/><path d="m449.752 99.998h24.048v384.684h-24.048z" fill="#ddf4fe"/><path d="m398.005 484.681h-137.298v-145.764c0-6.145 4.982-11.127 11.127-11.127h115.043c6.145 0 11.127 4.982 11.127 11.127v145.764z" fill="#c8effe"/><path d="m386.878 327.79h-24.048c6.145 0 11.127 4.982 11.127 11.127v145.764h24.048v-145.764c0-6.145-4.982-11.127-11.127-11.127z" fill="#99e6fc"/><path d="m19.19 484.681h164.265v-46.402h-164.265c-6.456 0-11.69 5.234-11.69 11.69v23.021c0 6.457 5.234 11.691 11.69 11.691z" fill="#b6c4cf"/><path d="m159.407 438.279h24.048v46.402h-24.048z" fill="#9facba"/><path d="m45.609 176.066h137.846v262.213h-149.537v-250.522c0-6.457 5.235-11.691 11.691-11.691z" fill="#c8effe"/><path d="m159.407 176.066h24.048v262.213h-24.048z" fill="#99e6fc"/><path d="m383.539 154.579h-108.366c-7.989 0-14.466-6.477-14.466-14.466v-98.329c0-7.989 6.477-14.466 14.466-14.466h108.366c7.989 0 14.466 6.477 14.466 14.466v98.329c0 7.989-6.477 14.466-14.466 14.466z" fill="#ff507d"/><path d="m383.539 27.319h-24.048c7.989 0 14.466 6.477 14.466 14.466v98.329c0 7.989-6.477 14.466-14.466 14.466h24.048c7.989 0 14.466-6.477 14.466-14.466v-98.33c0-7.989-6.477-14.465-14.466-14.465z" fill="#d23c69"/><path d="m474.388 424.405h-1.684c-16.63 0-30.112-13.481-30.112-30.112v-49.082c0-16.63 13.481-30.112 30.112-30.112h1.684c16.63 0 30.112 13.481 30.112 30.112v49.082c0 16.631-13.481 30.112-30.112 30.112z" fill="#bbec6c"/><path d="m474.388 315.1h-1.684c-3.953 0-7.724.77-11.182 2.154 11.091 4.44 18.93 15.28 18.93 27.958v49.082c0 12.677-7.838 23.517-18.93 27.958 3.458 1.385 7.229 2.154 11.182 2.154h1.684c16.63 0 30.112-13.481 30.112-30.112v-49.082c0-16.631-13.481-30.112-30.112-30.112z" fill="#a2e62e"/><g><path d="m432.016 286.382h-207.059c-3.66 0-6.626-2.967-6.626-6.626v-18.209c0-3.66 2.967-6.626 6.626-6.626h207.059c3.66 0 6.626 2.967 6.626 6.626v18.209c0 3.659-2.966 6.626-6.626 6.626z" fill="#aca6d6"/><path d="m432.016 254.921h-24.048c3.66 0 6.626 2.967 6.626 6.626v18.209c0 3.66-2.967 6.626-6.626 6.626h24.048c3.66 0 6.626-2.967 6.626-6.626v-18.209c0-3.66-2.966-6.626-6.626-6.626z" fill="#978ecb"/><path d="m432.016 223.298h-207.059c-3.66 0-6.626-2.967-6.626-6.626v-18.209c0-3.66 2.967-6.626 6.626-6.626h207.059c3.66 0 6.626 2.967 6.626 6.626v18.209c0 3.659-2.966 6.626-6.626 6.626z" fill="#aca6d6"/><path d="m432.016 191.837h-24.048c3.66 0 6.626 2.967 6.626 6.626v18.209c0 3.66-2.967 6.626-6.626 6.626h24.048c3.66 0 6.626-2.967 6.626-6.626v-18.209c0-3.66-2.966-6.626-6.626-6.626z" fill="#978ecb"/></g><path d="m355.472 75.141h-10.853v-10.853c0-2.976-2.413-5.389-5.389-5.389h-19.747c-2.976 0-5.389 2.413-5.389 5.389v10.853h-10.854c-2.976 0-5.389 2.413-5.389 5.389v19.747c0 2.976 2.413 5.389 5.389 5.389h10.853v10.853c0 2.976 2.413 5.389 5.389 5.389h19.747c2.976 0 5.389-2.413 5.389-5.389v-10.853h10.853c2.976 0 5.389-2.413 5.389-5.389v-19.747c.001-2.976-2.412-5.389-5.388-5.389z" fill="#f5fcff"/><path d="m355.472 75.141h-10.853v-10.853c0-2.976-2.413-5.389-5.389-5.389h-15.978c2.976 0 5.389 2.413 5.389 5.389v10.853h10.853c2.976 0 5.389 2.413 5.389 5.389v19.747c0 2.976-2.413 5.389-5.389 5.389h-10.853v10.853c0 2.976-2.413 5.389-5.389 5.389h15.978c2.976 0 5.389-2.413 5.389-5.389v-10.853h10.853c2.976 0 5.389-2.413 5.389-5.389v-19.747c0-2.976-2.413-5.389-5.389-5.389z" fill="#ddf4fe"/></g><g><path d="m474.388 307.6c-20.848-.992-39.358 16.314-39.295 37.611v49.082c0 18.555 13.51 34.005 31.207 37.055v45.832h-60.795v-138.263c0-10.271-8.356-18.627-18.627-18.627h-115.044c-10.271 0-18.627 8.356-18.627 18.627v138.263h-62.247v-369.68h62.247v32.613c0 12.112 9.854 21.966 21.966 21.966h108.366c12.112 0 21.966-9.854 21.966-21.966v-32.613h60.795v172.776c0 4.142 3.358 7.5 7.5 7.5s7.5-3.358 7.5-7.5v-200.106c0-10.587-8.608-19.2-19.19-19.2h-56.605v-19.185c0-12.112-9.854-21.966-21.966-21.966h-108.366c-12.112 0-21.966 9.854-21.966 21.966v19.185h-58.057c-10.582 0-19.19 8.613-19.19 19.2l-.005 350.609h-134.537v-243.022c0-2.311 1.88-4.19 4.19-4.19h102.467c4.142 0 7.5-3.358 7.5-7.5s-3.358-7.5-7.5-7.5h-102.466c-10.582 0-19.19 8.609-19.19 19.19v243.022h-7.229c-10.581 0-19.19 8.609-19.19 19.191v23.021c0 10.582 8.609 19.191 19.19 19.191l454.61-.002c4.142 0 7.5-3.358 7.5-7.5v-53.422c17.448-3.256 30.7-18.587 30.7-36.964v-49.082c0-20.739-16.873-37.612-37.612-37.612zm-8.088-227.43v12.33h-22.21v-16.53h18.02c2.31 0 4.19 1.884 4.19 4.2zm-37.21-4.2v16.53h-23.585v-16.53zm-153.917-41.152h108.366c3.841 0 6.966 3.125 6.966 6.966v98.329c0 3.841-3.125 6.966-6.966 6.966h-108.366c-3.841 0-6.966-3.125-6.966-6.966v-98.328c0-3.842 3.125-6.967 6.966-6.967zm-21.966 41.152v16.53h-24.827v-16.53zm-62.247 4.2c0-2.316 1.879-4.2 4.19-4.2h18.23v16.53h-22.42zm-15.005 397.012h-156.765c-2.311 0-4.19-1.88-4.19-4.191v-23.021c0-2.311 1.88-4.19 4.19-4.19h156.765zm214.55-138.265v138.263h-54.273v-67.713h9.476c4.142 0 7.5-3.358 7.5-7.5s-3.358-7.5-7.5-7.5h-9.476v-59.177h50.646c2 0 3.627 1.627 3.627 3.627zm-122.298 0c0-2 1.627-3.627 3.627-3.627h49.397v141.89h-53.025v-138.263zm228.793 55.376c0 12.468-10.144 22.612-22.612 22.612-12.361.944-24.367-9.538-24.295-22.612v-49.082c-.086-12.556 11.191-23.426 24.295-22.611 12.468 0 22.612 10.144 22.612 22.611z"/><path d="m432.016 247.421h-207.059c-7.789 0-14.126 6.337-14.126 14.126v18.209c0 7.789 6.337 14.126 14.126 14.126h207.059c7.79 0 14.126-6.337 14.126-14.126v-18.209c.001-7.789-6.336-14.126-14.126-14.126zm-.873 31.461h-205.312v-16.461h205.312z"/><path d="m446.143 198.463c0-7.79-6.337-14.126-14.126-14.126h-207.06c-7.789 0-14.126 6.337-14.126 14.126v18.209c0 7.789 6.337 14.126 14.126 14.126h18.743c4.142 0 7.5-3.358 7.5-7.5s-3.358-7.5-7.5-7.5h-17.869v-16.461h205.312v16.461h-152.263c-4.142 0-7.5 3.358-7.5 7.5s3.358 7.5 7.5 7.5h153.136c7.79 0 14.126-6.337 14.126-14.126v-18.209z"/><path d="m92.931 208.602c0-4.142-3.358-7.5-7.5-7.5s-7.5 3.358-7.5 7.5v23.334c0 4.142 3.358 7.5 7.5 7.5s7.5-3.358 7.5-7.5z"/><path d="m140.63 208.602c0-4.142-3.358-7.5-7.5-7.5s-7.5 3.358-7.5 7.5v23.334c0 4.142 3.358 7.5 7.5 7.5s7.5-3.358 7.5-7.5z"/><path d="m92.931 266.702c0-4.142-3.358-7.5-7.5-7.5s-7.5 3.358-7.5 7.5v23.334c0 4.142 3.358 7.5 7.5 7.5s7.5-3.358 7.5-7.5z"/><path d="m140.63 266.702c0-4.142-3.358-7.5-7.5-7.5s-7.5 3.358-7.5 7.5v23.334c0 4.142 3.358 7.5 7.5 7.5s7.5-3.358 7.5-7.5z"/><path d="m92.931 324.802c0-4.142-3.358-7.5-7.5-7.5s-7.5 3.358-7.5 7.5v23.334c0 4.142 3.358 7.5 7.5 7.5s7.5-3.358 7.5-7.5z"/><path d="m140.63 324.802c0-4.142-3.358-7.5-7.5-7.5s-7.5 3.358-7.5 7.5v23.334c0 4.142 3.358 7.5 7.5 7.5s7.5-3.358 7.5-7.5z"/><path d="m85.431 375.402c-4.142 0-7.5 3.358-7.5 7.5v23.334c0 4.142 3.358 7.5 7.5 7.5s7.5-3.358 7.5-7.5v-23.334c0-4.142-3.358-7.5-7.5-7.5z"/><path d="m133.13 375.402c-4.142 0-7.5 3.358-7.5 7.5v23.334c0 4.142 3.358 7.5 7.5 7.5s7.5-3.358 7.5-7.5v-23.334c0-4.142-3.358-7.5-7.5-7.5z"/><path d="m303.24 113.167h3.353v3.354c0 7.107 5.782 12.889 12.889 12.889h19.747c7.107 0 12.889-5.782 12.889-12.889v-3.354h3.354c7.107 0 12.889-5.782 12.889-12.889v-19.748c0-7.107-5.782-12.889-12.889-12.889h-3.354v-3.353c0-7.107-5.782-12.889-12.889-12.889h-19.747c-7.107 0-12.889 5.782-12.889 12.889v3.353h-3.353c-7.107 0-12.889 5.782-12.889 12.889v19.748c0 7.107 5.782 12.889 12.889 12.889zm2.111-30.526h8.742c4.142 0 7.5-3.358 7.5-7.5v-8.742h15.525v8.742c0 4.142 3.358 7.5 7.5 7.5h8.743v15.525h-8.743c-4.142 0-7.5 3.358-7.5 7.5v8.743h-15.525v-8.743c0-4.142-3.358-7.5-7.5-7.5h-8.742z"/></g></g></svg>